# xmcd
#
# Track frame offsets: 
#        150
#        14090
#        28527
#        41256
#        57827
#        69697
#
# Disc length: 1090 seconds
#
# Revision: 0
# Processed by: cddbd v1.5.2PL0 Copyright (c) Steve Scherf et al.
# Submitted via: ExactAudioCopyFreeDBPlugin 1.0
#
DISCID=4a044006
DTITLE=The Generators - The Deconstruction Of Dreams
DYEAR=2013
DGENRE=Punk Rock
TTITLE0=The Day Love Died
TTITLE1=Cut The Cord
TTITLE2=Sweet Mistery
TTITLE3=Wrongside Of The Tracks
TTITLE4=Tyranny (Live At KXLU Radio Los Angeles)
TTITLE5=Here I Go (Live At The Fox Theater, Pomona, California)
EXTD=
EXTT0=
EXTT1=
EXTT2=
EXTT3=
EXTT4=
EXTT5=
PLAYORDER=
